<svg width="149" height="20" viewBox="0 0 149 20" fill="none" xmlns="http://www.w3.org/2000/svg">
<g clip-path="url(#clip0_3828_11551)">
<path d="M144.899 2.25259V2.2434C144.899 1.30099 145.665 0.514893 146.632 0.514893C147.599 0.514893 148.356 1.2918 148.356 2.2342V2.2434C148.356 3.18427 147.592 3.9719 146.622 3.9719C145.652 3.9719 144.899 3.19193 144.899 2.25259V2.25259ZM148.175 2.2434V2.2342C148.175 1.37761 147.513 0.684985 146.632 0.684985C145.751 0.684985 145.079 1.38681 145.079 2.2434V2.25259C145.079 3.10612 145.744 3.80028 146.622 3.80028C147.501 3.80028 148.175 3.09845 148.175 2.2434V2.2434ZM145.93 1.2872H146.737C146.978 1.2872 147.162 1.35922 147.288 1.48335C147.383 1.57375 147.435 1.70247 147.435 1.86184V1.87103C147.435 2.16218 147.261 2.34453 147.015 2.41502L147.502 3.09845H147.091L146.65 2.47325H146.275V3.09845H145.93V1.28567V1.2872ZM146.724 2.17138C146.947 2.17138 147.084 2.06105 147.084 1.88942V1.88023C147.084 1.69788 146.949 1.59827 146.724 1.59827H146.276V2.17291H146.724V2.17138Z" fill="#12267A"></path>
<path d="M6.84813 3.32676V18.6626H4.10979V3.32676H0V0.749329H10.9579V3.32676H6.84813V3.32676Z" fill="#12267A"></path>
<path d="M16.571 0.749329C18.7469 0.749329 20.1429 1.01749 21.2983 1.79746C23.2582 3.11376 23.4206 5.23455 23.4206 6.01452C23.4206 8.59349 21.8361 10.4722 19.4457 11.01L25.0327 18.6642H21.7289L16.5985 11.3318H16.1158V18.6642H13.376V0.749329H16.5725H16.571ZM16.1143 8.96739H16.974C17.7264 8.96739 20.788 8.88617 20.788 6.04057C20.788 3.51677 18.3975 3.27466 17.0552 3.27466H16.1158V8.96739H16.1143Z" fill="#12267A"></path>
<path d="M29.2635 0.749329V11.5448C29.2635 12.5117 29.2895 13.6932 29.8274 14.6341C30.3653 15.5473 31.5728 16.4867 33.1572 16.4867C34.7417 16.4867 35.9507 15.5473 36.487 14.6341C37.0249 13.6947 37.0509 12.5117 37.0509 11.5448V0.749329H39.7908V12.2712C39.7908 13.6947 39.4951 15.414 38.1251 16.9173C37.1858 17.9378 35.5998 19.012 33.1572 19.012C30.7146 19.012 29.1286 17.9378 28.1893 16.9173C26.8194 15.4125 26.5236 13.6947 26.5236 12.2712V0.749329H29.2635V0.749329Z" fill="#12267A"></path>
<path d="M50.5235 18.6626V0.28656L63.5225 12.7094V0.749333H66.2624V19.0182L53.2634 6.74393V18.6626H50.5235Z" fill="#12267A"></path>
<path d="M127.218 18.6626V0.28656L140.217 12.7094V0.749333H142.957V19.0182L129.958 6.74393V18.6626H127.218Z" fill="#12267A"></path>
<path d="M72.8516 0.749329V18.6626H70.1117V0.749329H72.8516Z" fill="#12267A"></path>
<path d="M88.1247 14.3383H80.4706L78.5107 18.6626H75.5563L84.4716 0L92.9578 18.6626H90.0034L88.1232 14.3383H88.1247ZM87.0229 11.7593L84.3643 5.68966L81.5984 11.7593H87.0229Z" fill="#12267A"></path>
<path d="M103.48 9.34284H110.866V9.47769C110.866 12.5393 109.953 15.0371 108.208 16.7288C106.355 18.5278 104.152 19.012 102.11 19.012C99.5054 19.012 97.6528 18.2597 96.0131 16.5679C94.2678 14.7689 93.3545 12.3785 93.3545 9.79948C93.3545 7.00599 94.4823 4.58945 95.9595 3.11226C97.4903 1.55384 99.9345 0.426025 102.7 0.426025C104.312 0.426025 105.977 0.775404 107.374 1.55384C108.851 2.38592 109.765 3.43405 110.275 4.24007L108.099 5.7709C107.561 5.01851 106.757 4.21249 105.897 3.7298C104.904 3.13831 103.828 2.95136 102.728 2.95136C100.391 2.95136 98.8879 3.91828 98.0006 4.80398C96.8192 5.98544 96.0944 7.89169 96.0944 9.82554C96.0944 11.6245 96.7655 13.4251 97.947 14.6862C99.1821 16.0025 100.713 16.4852 102.432 16.4852C103.991 16.4852 105.279 16.0285 106.435 14.9007C107.429 13.9338 107.831 12.8872 107.938 11.8666H103.48V9.34284V9.34284Z" fill="#12267A"></path>
<path d="M123.74 3.32676H116.596V7.86562H123.525V10.4446H116.596V16.0852H123.74V18.6642H113.856V0.749329H123.74V3.32676Z" fill="#12267A"></path>
</g>
<defs>
<clipPath id="clip0_3828_11551">
<rect width="148.357" height="19.0181" fill="white"></rect>
</clipPath>
</defs>
</svg>
