<svg xmlns="http://www.w3.org/2000/svg" width="220" height="23" viewBox="0 0 220 23"><g><g><g><g><path fill="#a0dab3" d="M18.105 10.235c.305-.102.203-.56-.102-.51-3.056.408-6.57.102-3.565-4.533.152-.254-.204-.56-.408-.305-3.667 3.718-3.616 7.283 4.075 5.348"/></g></g><g><g><path fill="#a0dab3" d="M8.835 12.628c-2.241-2.495 1.732-6.825 4.482-9.27.255-.254-.05-.661-.356-.458C8.835 5.345 1.603 10.49 5.83 14.971c1.019 1.12 2.496 1.477 3.973 1.274 2.24-.255 4.991-1.376 6.977-2.496 1.172-.662 2.19-1.324 3.107-2.088.306-.204 0-.662-.305-.51a25.802 25.802 0 0 1-4.992 2.241c-1.68.459-4.482.662-5.755-.764"/></g></g><g><g><path fill="#71cc98" d="M54.47 6.16a6.536 6.536 0 0 0-1.324-2.394 7.804 7.804 0 0 0-2.14-1.732C40.567-4.23 29.82 5.396 22.18 11.712c-.203.152-.356.305-.56.458-.611.51-1.273 1.019-1.935 1.528-2.14 1.63-4.33 3.056-6.673 3.922-3.005 1.171-7.181 1.63-9.931-.459-2.292-1.731-1.732-4.838-.612-7.13.459-.968 1.121-1.834 1.834-2.7.713-.815 1.477-1.63 2.343-2.343.866-.713 1.732-1.375 2.7-1.935.916-.611 1.935-1.171 2.902-1.68.204-.103.051-.408-.152-.306-1.07.458-2.089.916-3.107 1.426-2.038 1.07-3.922 2.394-5.552 4.074-.407.408-.764.866-1.12 1.325l-.459.764-.458.764A9.98 9.98 0 0 0 .126 12.78c-.663 3.413 1.375 6.927 4.329 8.608 4.482 2.597 10.186 1.935 14.72-.051a30.642 30.642 0 0 0 4.227-2.292c2.648-1.681 4.991-3.616 7.232-5.45 2.241-1.834 4.278-3.565 6.52-4.991a27.35 27.35 0 0 1 3.36-1.834c3.006-1.324 7.335-2.292 10.391-.51 1.273.765 2.088 2.038 2.241 3.464.255 2.037-.917 3.973-2.088 5.5-1.58 2.09-3.514 3.77-5.705 5.196-.916.611-1.935 1.171-2.903 1.68h-.05c-.204.103-.052.408.152.306h.051a57.69 57.69 0 0 0 3.107-1.426c2.037-1.07 3.922-2.394 5.552-4.074.407-.408.764-.866 1.12-1.325a15.16 15.16 0 0 0 1.019-1.477c1.273-2.24 1.884-5.347 1.07-7.945"/></g></g><g><g><path fill="#a0dab3" d="M37.051 13.647c-.305.102-.152.56.153.51 3.005-.612 6.57-.561 3.922 4.278-.153.305.204.56.408.305 3.31-4.023 3.055-7.589-4.483-5.093"/></g></g><g><g><path fill="#a0dab3" d="M46.117 10.591c2.394 2.343-1.273 6.927-3.82 9.575-.254.255.102.662.357.459 3.922-2.7 10.747-8.404 6.265-12.53-1.12-1.018-2.598-1.273-4.075-1.018-2.24.407-4.89 1.731-6.774 2.954-1.12.764-2.088 1.477-2.954 2.292-.255.254.051.662.357.458 1.528-1.019 3.157-1.935 4.838-2.597 1.68-.56 4.431-.968 5.806.407"/></g></g><g><path fill="#222" d="M74.436 1.321c2.801 0 4.787.866 6.672 2.547.255.204.255.56.05.764l-1.68 1.732c-.204.203-.458.203-.713 0-1.171-1.019-2.7-1.63-4.278-1.63-3.515 0-6.163 2.954-6.163 6.417 0 3.464 2.648 6.367 6.214 6.367 1.68 0 3.056-.611 4.227-1.58.204-.203.51-.152.713 0l1.732 1.784c.203.203.153.56-.051.764-1.885 1.833-4.279 2.699-6.723 2.699-5.552 0-9.983-4.38-9.983-9.932 0-5.45 4.431-9.932 9.983-9.932z"/></g><g><path fill="#222" d="M87.78 10.438v-5.5h4.482c1.477 0 2.75 1.222 2.75 2.699 0 1.528-1.273 2.801-2.75 2.801zm-3.667-8.302v18.336c0 .255.204.51.51.51h2.546c.255 0 .51-.255.51-.51v-7.029h3.055l3.667 7.335c.051.101.204.254.459.254h2.903c.458 0 .662-.458.458-.815l-3.769-7.028c2.394-.968 4.075-3.056 4.075-5.603 0-3.31-2.7-5.959-6.01-5.959h-7.895a.51.51 0 0 0-.51.51z"/></g><g><path fill="#222" d="M104.13 11.355c0-3.463 2.852-6.367 6.315-6.367 3.514 0 6.366 2.904 6.366 6.367s-2.903 6.316-6.366 6.316a6.314 6.314 0 0 1-6.316-6.316zm-3.617-.05c0 5.55 4.38 9.93 9.932 9.93 5.5 0 9.932-4.38 9.932-9.93 0-5.553-4.38-9.984-9.932-9.984-5.552 0-9.932 4.482-9.932 9.983z"/></g><g><path fill="#222" d="M122.261 18.282l1.019-1.732c.204-.407.713-.407.917-.204.152.102 2.393 1.732 4.176 1.732 1.426 0 2.496-.917 2.496-2.14 0-1.425-1.172-2.393-3.515-3.31-2.597-1.07-5.195-2.7-5.195-5.959 0-2.445 1.834-5.297 6.214-5.297 2.801 0 4.991 1.426 5.552 1.834.254.153.356.611.152.917l-1.07 1.579c-.203.356-.61.56-.967.356-.204-.153-2.343-1.528-3.82-1.528-1.579 0-2.444 1.07-2.444 1.936 0 1.324 1.018 2.19 3.26 3.106 2.699 1.07 5.754 2.7 5.754 6.265 0 2.852-2.444 5.45-6.366 5.45-3.463 0-5.552-1.63-6.06-2.14-.256-.305-.357-.458-.103-.865z"/></g><g><path fill="#222" d="M137.235 18.282l1.019-1.732c.204-.407.713-.407.917-.204.152.102 2.393 1.732 4.176 1.732 1.426 0 2.496-.917 2.496-2.14 0-1.425-1.172-2.393-3.515-3.31-2.597-1.07-5.195-2.7-5.195-5.959 0-2.445 1.834-5.297 6.214-5.297 2.801 0 4.992 1.426 5.552 1.834.254.153.356.611.153.917l-1.07 1.579c-.204.356-.611.56-.968.356-.203-.153-2.343-1.528-3.82-1.528-1.579 0-2.444 1.07-2.444 1.936 0 1.324 1.018 2.19 3.26 3.106 2.699 1.07 5.755 2.7 5.755 6.265 0 2.852-2.445 5.45-6.367 5.45-3.463 0-5.552-1.63-6.06-2.14-.205-.305-.357-.458-.103-.865z"/></g><g><path fill="#222" d="M156.335 10.438v-5.5h4.482c1.477 0 2.75 1.222 2.75 2.699 0 1.528-1.273 2.801-2.75 2.801zm-3.565-8.302v18.285c0 .255.203.51.509.51h2.547c.254 0 .509-.255.509-.51v-7.029h3.056l3.616 7.386a.509.509 0 0 0 .458.254h2.904c.458 0 .662-.458.458-.815l-3.77-7.028c2.395-.968 4.075-3.056 4.075-5.603 0-3.31-2.699-5.959-6.01-5.959h-7.894a.51.51 0 0 0-.51.51z"/></g><g><path fill="#222" d="M172.735 11.355c0-3.463 2.852-6.367 6.316-6.367 3.514 0 6.366 2.904 6.366 6.367s-2.903 6.316-6.366 6.316c-3.515 0-6.367-2.853-6.316-6.316zm-3.616-.05c0 5.55 4.38 9.93 9.932 9.93 5.5 0 9.931-4.38 9.931-9.93 0-5.553-4.38-9.984-9.931-9.984-5.552 0-9.932 4.482-9.932 9.983z"/></g><g><path fill="#222" d="M195.553 10.591V5.039h3.208c1.528 0 2.853 1.172 2.853 2.7a2.847 2.847 0 0 1-2.853 2.852zm-3.565 9.88c0 .256.203.51.509.51h2.547c.254 0 .509-.254.509-.51v-6.518h3.514c3.362 0 6.163-2.802 6.163-6.214 0-3.362-2.801-6.112-6.214-6.112h-6.52a.51.51 0 0 0-.509.51z"/></g><g><path fill="#222" d="M207.675 2.136a.51.51 0 0 1 .509-.509h11.307a.51.51 0 0 1 .51.51v2.291a.51.51 0 0 1-.51.51h-8.2V9.47h6.825c.254 0 .51.254.51.509v2.292a.51.51 0 0 1-.51.51h-6.825v4.838h8.2a.51.51 0 0 1 .51.509v2.292a.51.51 0 0 1-.51.51h-11.256a.51.51 0 0 1-.51-.51V2.136z"/></g></g></g></svg>