<?xml version="1.0" encoding="UTF-8" standalone="no"?>
<!-- Created with Inkscape (http://www.inkscape.org/) -->
<svg
   xmlns:dc="http://purl.org/dc/elements/1.1/"
   xmlns:cc="http://creativecommons.org/ns#"
   xmlns:rdf="http://www.w3.org/1999/02/22-rdf-syntax-ns#"
   xmlns:svg="http://www.w3.org/2000/svg"
   xmlns="http://www.w3.org/2000/svg"
   xmlns:sodipodi="http://sodipodi.sourceforge.net/DTD/sodipodi-0.dtd"
   xmlns:inkscape="http://www.inkscape.org/namespaces/inkscape"
   width="426.401432711"
   height="234.520787991" viewBox="0 0 440.0 242.0"
   id="svg2"
   sodipodi:version="0.32"
   inkscape:version="0.46"
   version="1.0"
   sodipodi:docname="JB-Hi-Fi-brand.svg"
   inkscape:output_extension="org.inkscape.output.svg.inkscape">
  <defs
     id="defs4">
    <inkscape:perspective
       sodipodi:type="inkscape:persp3d"
       inkscape:vp_x="0 : 526.18109 : 1"
       inkscape:vp_y="0 : 1000 : 0"
       inkscape:vp_z="744.09448 : 526.18109 : 1"
       inkscape:persp3d-origin="372.04724 : 350.78739 : 1"
       id="perspective10" />
    <clipPath
       id="clipPath2446"
       clipPathUnits="userSpaceOnUse">
      <path
         id="path2448"
         d="M 1197.82,1242.91 L 3627.29,1242.91 L 3627.29,5620.29 L 1197.82,5620.29 L 1197.82,1242.91 z" />
    </clipPath>
    <clipPath
       id="clipPath2420"
       clipPathUnits="userSpaceOnUse">
      <path
         id="path2422"
         d="M 835.461,2.08203 L 4114.54,2.08203 L 4114.54,7014.58 L 835.461,7014.58 L 835.461,2.08203 z" />
    </clipPath>
    <inkscape:perspective
       id="perspective2410"
       inkscape:persp3d-origin="372.04724 : 350.78739 : 1"
       inkscape:vp_z="744.09448 : 526.18109 : 1"
       inkscape:vp_y="0 : 1000 : 0"
       inkscape:vp_x="0 : 526.18109 : 1"
       sodipodi:type="inkscape:persp3d" />
  </defs>
  <sodipodi:namedview
     id="base"
     pagecolor="#fff000"
     bordercolor="#666666"
     borderopacity="1.0"
     gridtolerance="10000"
     guidetolerance="10"
     objecttolerance="10"
     inkscape:pageopacity="1"
     inkscape:pageshadow="2"
     inkscape:zoom="0.35"
     inkscape:cx="-107.85714"
     inkscape:cy="520"
     inkscape:document-units="px"
     inkscape:current-layer="layer1"
     showgrid="false"
     inkscape:window-width="1680"
     inkscape:window-height="970"
     inkscape:window-x="-6"
     inkscape:window-y="-6"
     showguides="true"
     inkscape:guide-bbox="true" />
  <metadata
     id="metadata7">
    <rdf:RDF>
      <cc:Work
         rdf:about="">
        <dc:format>image/svg+xml</dc:format>
        <dc:type
           rdf:resource="http://purl.org/dc/dcmitype/StillImage" />
      </cc:Work>
    </rdf:RDF>
  </metadata>
  <g
     inkscape:label="Layer 1"
     inkscape:groupmode="layer"
     id="layer1"
     transform="translate(-120.18685,-417.48913)">
    <rect
       style="opacity:1;fill:#fff200;fill-opacity:1;fill-rule:nonzero;stroke:#000000;stroke-width:0;stroke-miterlimit:4;stroke-dasharray:none"
       id="rect3368"
       width="440"
       height="242"
       x="120.18685"
       y="417.48914"
       rx="0.42747951"
       ry="3.2753785" />
    <g
       id="g2521"
       transform="matrix(0.6091924,0,0,0.6091924,241.02491,230.32762)">
      <path
         d="M 56.78606,323.65277 L 142.14956,323.65277 C 142.14956,323.65277 142.14956,490.29377 142.14956,495.10577 C 142.14956,499.91777 141.07856,512.20577 135.00506,519.83327 C 128.93006,527.45477 122.92106,529.90727 117.12806,529.90727 C 111.87806,529.90727 -31.88944,529.90727 -37.49944,529.90727 C -47.68144,529.90727 -55.80094,524.23877 -60.44794,519.95177 C -64.84294,515.89277 -70.77544,508.71827 -70.77544,494.45177 L -70.77544,431.17577 L 17.49056,431.17577 C 17.49056,431.17577 17.49056,470.29277 17.49056,473.13977 C 17.49056,476.87927 18.87656,480.16877 20.90306,481.95377 C 23.17556,483.96227 24.59756,485.16827 29.45606,485.29577 C 34.31756,485.42027 43.06406,485.29577 45.67556,485.29577 C 48.28706,485.29577 51.78656,483.80927 53.53706,482.19227 C 55.08506,480.76427 56.83556,478.46027 56.83556,474.17627 C 56.83556,469.88627 56.78606,323.65277 56.78606,323.65277"
         style="fill:#231f20;fill-opacity:1;fill-rule:nonzero;stroke:none"
         id="path2426" />
      <path
         d="M 301.20206,404.06027 L 264.81956,404.06027 L 264.81506,361.29377 C 264.81506,361.29377 298.45406,361.21877 300.60506,361.21877 C 302.75906,361.21877 311.37206,369.01427 311.37206,383.27027 C 311.37206,397.52777 302.68706,404.06027 301.20206,404.06027 z M 301.20206,487.90277 L 264.81956,487.90277 L 264.81506,445.13477 C 264.81506,445.13477 298.45406,445.05977 300.60506,445.05977 C 302.75906,445.05977 311.37206,452.85677 311.37206,467.11427 C 311.37206,481.36877 302.68706,487.90277 301.20206,487.90277 z M 375.32756,421.21127 C 375.32756,421.21127 383.00456,420.77777 388.61306,414.39527 C 393.78656,408.50927 394.13456,400.15877 394.13456,397.22477 C 394.13456,394.29077 394.22156,351.14027 394.22156,351.14027 C 394.22156,340.94027 386.66006,332.66927 386.66006,332.66927 C 379.28306,325.23077 371.61956,323.70677 366.56906,323.70677 C 363.76406,323.70677 179.15756,323.64227 179.15756,323.64227 L 179.14856,529.74527 L 368.51306,529.82627 C 371.44706,529.73927 380.76506,528.79427 387.23606,520.33877 C 393.70706,511.88477 394.05056,499.28927 394.05056,496.00877 C 394.05056,492.73127 394.13756,447.41027 394.13756,445.68227 C 394.13756,443.96027 394.10906,436.81277 388.53056,429.66527 C 383.00456,422.58977 375.32756,421.21127 375.32756,421.21127"
         style="fill:#231f20;fill-opacity:1;fill-rule:nonzero;stroke:none"
         id="path2428" />
      <path
         d="M 147.68906,603.29327 L 147.68906,640.89002 L 184.41731,640.89002 L 184.41731,603.29327 L 147.68906,603.29327 z"
         style="fill:#231f20;fill-opacity:1;fill-rule:nonzero;stroke:none"
         id="path2430" />
      <path
         d="M 75.99206,557.02277 L 75.99206,688.06067 L 134.58236,688.06067 L 134.58236,557.02277 L 75.99206,557.02277 z"
         style="fill:#231f20;fill-opacity:1;fill-rule:nonzero;stroke:none"
         id="path2432" />
      <path
         d="M 339.50006,557.02277 L 339.50006,688.06067 L 398.09261,688.06067 L 398.09261,557.02277 L 339.50006,557.02277 z"
         style="fill:#231f20;fill-opacity:1;fill-rule:nonzero;stroke:none"
         id="path2434" />
      <path
         d="M 319.77956,557.02277 L 319.77956,589.40327 L 257.68706,589.34177 L 257.71406,605.12327 L 311.11106,605.13977 L 311.11106,639.03527 L 257.68556,639.06827 L 257.68556,688.06277 L 199.22156,688.06277 L 199.22156,557.02277 L 319.77956,557.02277"
         style="fill:#231f20;fill-opacity:1;fill-rule:nonzero;stroke:none"
         id="path2436" />
      <path
         d="M 57.60806,688.06277 L -0.84394,688.06277 L -0.84394,639.03827 L -13.96594,639.03827 L -13.96594,688.06277 L -72.66094,688.06277 L -72.66094,557.02277 L -13.96594,557.02277 L -13.96594,602.25227 L -0.84394,602.25227 L -0.84394,557.02277 L 57.60806,557.02277 L 57.60806,688.06277"
         style="fill:#231f20;fill-opacity:1;fill-rule:nonzero;stroke:none"
         id="path2438" />
      <path
         d="M -80.30344,414.36227 C -80.30344,414.36227 -136.65094,414.36227 -141.13894,414.36227 C -150.33844,414.36227 -155.50144,417.10577 -159.20944,420.59627 C -162.80794,423.97877 -165.52744,430.04177 -165.52744,436.41377 C -165.52744,441.41177 -165.52444,605.39477 -165.52444,608.64377 C -165.52444,612.79877 -163.75294,618.85577 -159.42844,623.60627 C -155.10094,628.36277 -146.61694,630.42527 -142.59694,630.42527 C -138.57544,630.42527 -80.30344,630.42527 -80.30344,630.42527 L -80.30344,619.02227 C -80.30344,619.02227 -137.19244,619.02227 -142.77394,619.02227 C -148.35694,619.02227 -149.77144,617.88377 -151.02844,616.62677 C -153.10144,614.55677 -153.63544,612.32777 -153.80194,609.40577 C -153.80194,609.40577 -153.80194,442.74377 -153.80194,435.96077 C -153.80194,432.26777 -153.20944,430.19477 -151.79194,428.56277 C -150.37444,426.92477 -148.43044,426.08477 -145.39294,426.08477 C -142.35544,426.08477 -80.30344,426.08477 -80.30344,426.08477 L -80.30344,414.36227"
         style="fill:#231f20;fill-opacity:1;fill-rule:nonzero;stroke:none"
         id="path2440" />
      <g
         transform="matrix(0,0.15,0.15,0,-351.96394,143.96927)"
         id="g2442">
        <g
           id="g2444"
           clip-path="url(#clipPath2446)">
          <path
             d="M 1802.62,5052.16 C 1802.62,5052.16 1802.62,5427.78 1802.62,5457.73 C 1802.62,5519.08 1820.91,5553.48 1844.18,5578.2 C 1866.73,5602.17 1916.3,5620.34 1949.63,5620.32 C 1982.95,5620.3 3076.17,5620.3 3097.83,5620.3 C 3119.52,5620.3 3165.91,5608.49 3197.58,5579.64 C 3229.29,5550.83 3243.04,5504.9 3243.04,5478.11 C 3243.04,5451.31 3243.04,5052.16 3243.04,5052.16 L 3167.02,5052.16 C 3167.02,5052.16 3167.02,5431.42 3167.02,5468.63 C 3167.02,5505.86 3159.43,5515.28 3151.05,5523.64 C 3137.25,5537.48 3122.39,5541.04 3102.91,5542.17 C 3102.91,5542.17 1991.83,5542.17 1946.61,5542.17 C 1921.99,5542.17 1908.17,5538.2 1897.29,5528.74 C 1886.37,5519.28 1880.77,5506.34 1880.77,5486.07 C 1880.77,5465.84 1880.77,5052.16 1880.77,5052.16 L 1802.62,5052.16"
             style="fill:#231f20;fill-opacity:1;fill-rule:nonzero;stroke:none"
             id="path2450" />
        </g>
      </g>
    </g>
  </g>
</svg>
