<svg width="250" height="23" viewBox="0 0 250 23" fill="none" xmlns="http://www.w3.org/2000/svg">
<path d="M33.0615 0.884705C39.5157 0.884705 44.0127 5.66785 44.0127 11.4999C44.0127 17.3321 39.5204 22.1152 33.0615 22.1152C26.6026 22.1152 22.1436 17.416 22.1436 11.4999C22.1436 5.58394 26.6354 0.884721 33.0615 0.884705ZM78.5078 0.884705C84.962 0.884705 89.459 5.66785 89.459 11.4999C89.459 17.3321 84.9667 22.1152 78.5078 22.1152C72.0491 22.115 67.5908 17.4158 67.5908 11.4999C67.5908 5.58406 72.0772 0.884897 78.5078 0.884705ZM150.311 0.884705C156.765 0.884763 161.261 5.66788 161.261 11.4999C161.261 17.332 156.769 22.1151 150.311 22.1152C143.852 22.1152 139.393 17.416 139.393 11.4999C139.393 5.58393 143.884 0.884705 150.311 0.884705ZM242.848 0.884705C244.894 0.884705 246.997 1.25273 248.421 1.84467V7.28119C247.17 6.46079 245.265 5.98044 243.358 5.98041C241.682 5.98041 240.655 6.46068 240.655 7.28119C240.656 8.01763 241.907 8.52559 243.981 9.37396C247.279 10.7306 249.784 12.1202 249.784 15.915H249.789C249.789 19.7936 246.89 22.1151 241.541 22.1152C239.237 22.1152 236.876 21.6913 235.283 21.0107V15.3505C237.189 16.3995 239.462 16.9638 241.228 16.9638C242.993 16.9638 243.986 16.6514 243.986 15.915C243.986 15.0665 242.651 14.6697 240.459 13.8212C237.162 12.5486 234.829 11.1877 234.829 7.28119C234.829 3.37448 237.986 0.884721 242.848 0.884705ZM177.668 15.3456C177.668 20.4131 174.91 22.1102 170.671 22.1103C169.219 22.1103 168.113 21.8263 167.626 21.6025V16.791H167.631C167.973 16.9308 168.825 17.1874 169.565 17.1874C170.928 17.1874 171.696 16.6236 171.696 15.2626V1.30853H177.668V15.3456ZM227.489 10.4511V1.30853H233.321V21.9706H233.063L221.293 12.5478V21.6865H215.489V1.02435H215.775L227.489 10.4511ZM215.035 21.6865H208.862L207.586 19.0009H201.358L200.108 21.6913H194.104V21.6953H179.968V1.30853H193.678V6.29291H185.912V9.01068H192.567V13.6816H185.912V16.7119H194.104V21.3652L204.343 1.02435H204.628L215.035 21.6865ZM10.3691 9.40228L20.5508 1.02435H20.7197V21.6865H15.0342V12.288L10.3691 16.0546L5.67578 12.288V21.6913H0.0175781V1.02435H0.158203L10.3691 9.40228ZM55.8154 9.40228L65.9932 1.02435H66.1621V21.6865H60.4756V12.288L55.8105 16.0546L51.1172 12.288L51.1221 12.2929V21.6913H45.4639V1.02435H45.6045L55.8154 9.40228ZM105.323 6.29291H100.091V21.6913H94.1191V6.29291H88.8877V1.30853H105.323V6.29291ZM122.072 21.6865H115.898L114.622 19.0009H108.396L107.145 21.6913H100.977L111.379 1.02435H111.665L122.072 21.6865ZM130.203 1.30853C135.238 1.30859 138.793 3.65859 138.793 8.46967C138.793 11.3554 137.43 13.3088 135.182 14.3857L139.163 21.6913H132.994L129.979 15.3505H128.302V21.6913H122.498V1.30853H130.203ZM33.0615 6.29291C30.0499 6.29293 28.1153 8.81002 28.1152 11.4999C28.1152 14.1899 30.078 16.707 33.0615 16.707C36.0779 16.707 38.0078 14.2458 38.0078 11.4999C38.0078 8.75406 36.0732 6.29291 33.0615 6.29291ZM78.5078 6.29291C75.4964 6.29313 73.5625 8.81012 73.5625 11.4999C73.5625 14.1898 75.5245 16.7067 78.5078 16.707C81.5242 16.707 83.4541 14.2458 83.4541 11.4999C83.4541 8.75406 81.5195 6.29291 78.5078 6.29291ZM150.311 6.29291C147.299 6.29291 145.364 8.81001 145.364 11.4999C145.364 14.1899 147.327 16.707 150.311 16.707C153.327 16.7069 155.257 14.2458 155.257 11.4999C155.257 8.7541 153.322 6.29297 150.311 6.29291ZM111.491 11.3554C111.323 12.092 110.554 13.9615 110.039 15.1503H112.999C112.488 13.9615 111.721 12.092 111.548 11.3554H111.491ZM204.455 11.3554C204.286 12.092 203.518 13.9615 203.003 15.1503H205.963C205.452 13.9615 204.684 12.092 204.511 11.3554H204.455ZM128.302 10.6513H130.521C131.716 10.6513 132.798 10.1433 132.798 8.46967C132.798 6.79606 131.716 6.29292 130.521 6.29291H128.302V10.6513Z" fill="black"/>
</svg>
