<svg width="172" height="27" viewBox="0 0 172 27" fill="none" xmlns="http://www.w3.org/2000/svg">
<g clip-path="url(#clip0_2_12406)">
<path d="M16.7624 8.06568H11.3842L11.8992 6.17797C12.2425 4.97669 12.3569 4.23305 12.3569 3.94703C12.3569 3.66102 12.128 3.48941 11.7275 3.48941C11.3842 3.48941 11.1554 3.60381 10.9265 3.88983C10.7549 4.11864 10.526 4.80508 10.24 5.83474L7.6081 15.6737C7.37925 16.589 7.26482 17.2182 7.32203 17.5042C7.37925 17.7903 7.55089 17.9619 7.89417 17.9619C8.29467 17.9619 8.58075 17.7903 8.8096 17.447C9.03846 17.1038 9.26732 16.4746 9.55339 15.5593L10.1827 13.1568H9.15289L10.0111 10.0106H16.3047L13.3295 21.0508H9.95389L9.83946 19.5636C9.32453 20.1928 8.69517 20.6504 8.06582 20.9936C7.43646 21.3369 6.74989 21.4513 5.94889 21.4513C5.03346 21.4513 4.28968 21.2225 3.6031 20.822C2.91653 20.3644 2.45882 19.8496 2.22996 19.2203C2.0011 18.5911 1.94389 17.9047 2.0011 17.161C2.11553 16.4746 2.34439 15.3877 2.68768 13.9576L4.34689 7.83686C4.86182 5.89195 5.37675 4.46186 5.83446 3.54661C6.29217 2.63136 7.09317 1.83051 8.29467 1.08686C9.49617 0.400424 10.9265 0 12.5285 0C14.0733 0 15.332 0.34322 16.1902 0.972458C17.0485 1.60169 17.5062 2.40254 17.6206 3.26059C17.6778 4.17585 17.5062 5.43432 17.0485 7.15042L16.7624 8.06568Z" fill="white"></path>
<path d="M28.0334 12.8707H21.3965L20.4239 16.5317C20.195 17.2754 20.1378 17.7902 20.195 18.019C20.2522 18.2478 20.4239 18.3623 20.7672 18.3623C21.1677 18.3623 21.4537 18.1906 21.6826 17.9046C21.9114 17.6186 22.0831 17.0466 22.3119 16.1885L22.8841 13.9576H27.7473L27.404 15.2161C27.1179 16.2457 26.8319 17.0466 26.5458 17.6186C26.2597 18.1906 25.802 18.7627 25.1154 19.3919C24.4289 20.0212 23.7423 20.4788 22.8841 20.822C22.0259 21.1652 21.0532 21.2796 19.9662 21.2796C18.8791 21.2796 17.9637 21.108 17.2199 20.822C16.4761 20.4788 15.9612 20.0784 15.6179 19.5063C15.2746 18.9343 15.1602 18.3623 15.1602 17.6758C15.1602 17.0466 15.3318 16.0741 15.6751 14.8156L16.991 9.89615C17.3915 8.40886 17.9064 7.2648 18.5358 6.40675C19.1652 5.5487 20.0234 4.91946 21.0532 4.46183C22.0831 4.0042 23.1702 3.77539 24.3717 3.77539C25.802 3.77539 26.9463 4.06141 27.7473 4.57624C28.5483 5.14827 29.006 5.83471 29.1204 6.74997C29.2349 7.66522 29.1204 8.9237 28.6627 10.5826L28.0334 12.8707ZM23.6279 10.125L23.9712 8.86649C24.2 8.00844 24.3144 7.43641 24.2572 7.15039C24.2572 6.92158 24.0856 6.74997 23.7995 6.74997C23.4562 6.74997 23.1702 6.86437 23.0557 7.09319C22.9413 7.322 22.7124 7.89403 22.4836 8.86649L22.1403 10.125H23.6279Z" fill="white"></path>
<path d="M36.2719 4.11902L35.757 5.66352C36.2719 5.03428 36.9013 4.57665 37.4734 4.29064C38.1028 4.00462 38.7894 3.83301 39.4759 3.83301C40.3341 3.83301 41.0207 4.06182 41.4784 4.46225C41.9361 4.86267 42.165 5.3775 42.1078 6.06394C42.1078 6.69318 41.8789 7.78004 41.4784 9.21013L38.3316 21.0512H33.1824L36.3291 9.32453C36.6152 8.18047 36.7869 7.43682 36.7869 7.20801C36.7869 6.97919 36.6152 6.80758 36.2719 6.80758C35.9286 6.80758 35.6426 6.97919 35.4709 7.26521C35.2993 7.55123 35.0704 8.35208 34.7271 9.61055L31.6376 21.0512H26.4883L31.0082 4.11902H36.2719Z" fill="white"></path>
<path d="M52.9812 12.8707H46.2871L45.3145 16.5317C45.0856 17.2754 45.0284 17.7902 45.0856 18.019C45.1429 18.2478 45.3145 18.3623 45.6578 18.3623C46.0583 18.3623 46.3444 18.1906 46.5732 17.9046C46.8021 17.6186 46.9737 17.0466 47.2026 16.1885L47.7747 13.9576H52.6379L52.2946 15.2161C52.0086 16.2457 51.7225 17.0466 51.4364 17.6186C51.1504 18.1906 50.6926 18.7627 50.0061 19.3919C49.3767 20.0212 48.6329 20.4788 47.7747 20.822C46.9737 21.1652 45.9439 21.2796 44.8568 21.2796C43.7697 21.2796 42.8543 21.108 42.1105 20.822C41.3667 20.4788 40.8518 20.0784 40.5085 19.5063C40.1652 18.9343 40.0508 18.3623 40.0508 17.6758C40.0508 17.0466 40.2224 16.0741 40.5657 14.8156L41.8816 9.89615C42.2821 8.40886 42.7971 7.2648 43.4264 6.40675C44.0558 5.5487 44.8568 4.91946 45.9439 4.46183C46.9737 4.0042 48.0608 3.77539 49.2623 3.77539C50.6926 3.77539 51.8369 4.06141 52.6379 4.57624C53.4389 5.14827 53.8966 5.83471 54.0111 6.74997C54.1255 7.66522 54.0111 8.9237 53.5534 10.5826L52.9812 12.8707ZM48.5185 10.125L48.8618 8.86649C49.0906 8.00844 49.2051 7.43641 49.1479 7.15039C49.1479 6.92158 48.9762 6.74997 48.6901 6.74997C48.3469 6.74997 48.0608 6.86437 47.9464 7.09319C47.8319 7.322 47.6031 7.89403 47.3742 8.86649L47.0309 10.125H48.5185Z" fill="white"></path>
<path d="M61.1053 4.11914L60.1899 6.69329C61.3342 5.0916 62.6501 4.23355 64.0805 4.11914L62.4785 10.0683C61.563 10.0683 60.8193 10.1827 60.3043 10.4687C59.7894 10.6975 59.4461 11.098 59.2173 11.5556C58.9884 12.0132 58.7595 12.6997 58.3018 14.3586L56.5282 21.0513H51.3789L55.8988 4.11914H61.1053Z" fill="white"></path>
<path d="M67.7405 10.1254H62.9345L62.9917 9.89657C63.335 8.58089 63.8499 7.20801 64.3648 6.52157C64.8798 5.83513 65.6235 5.20589 66.7106 4.63386C67.7405 4.06182 68.9992 3.83301 70.4868 3.83301C72.2032 3.83301 73.4619 4.11903 74.2057 4.74826C74.9495 5.3775 75.2355 6.12114 75.1783 7.0364C75.1211 7.95165 74.7206 9.78216 73.9768 12.5851L71.6883 21.0512H66.6534L67.0539 19.5639C66.5962 20.1932 66.024 20.6508 65.4519 20.9368C64.8798 21.2228 64.2504 21.3945 63.5638 21.3945C62.6484 21.3945 61.9046 21.1656 61.2752 20.6508C60.6459 20.136 60.5887 19.0491 61.0464 17.333L61.4469 15.9601C61.7902 14.7017 62.1907 13.8436 62.7628 13.386C63.2777 12.9283 64.422 12.4135 66.1385 11.7843C68.0265 11.0978 69.0564 10.6974 69.228 10.4686C69.3997 10.2398 69.5713 9.78216 69.8002 9.03852C70.029 8.18047 70.1435 7.55123 70.0863 7.32242C70.029 7.0364 69.8574 6.92199 69.5141 6.92199C69.1708 6.92199 68.942 7.0364 68.7703 7.26521C68.5987 7.49403 68.427 8.06606 68.1982 9.03852L67.7405 10.1254ZM68.5987 12.9856C67.626 13.6148 66.9967 14.0724 66.7678 14.53C66.539 14.9305 66.3101 15.5025 66.0813 16.3033C65.8524 17.1614 65.738 17.7334 65.7952 18.0195C65.8524 18.2483 66.024 18.4199 66.3673 18.4199C66.7106 18.4199 66.9395 18.3055 67.0539 18.1339C67.2255 17.9622 67.3972 17.3902 67.626 16.5322L68.5987 12.9856Z" fill="white"></path>
<path d="M83.7041 0.458008L78.1543 21.0512H72.8906L78.4404 0.458008H83.7041Z" fill="white"></path>
<path d="M87.939 0.458008H93.3172C94.7476 0.458008 95.8918 0.572415 96.5784 0.801228C97.3222 1.03004 97.7799 1.37326 98.066 1.77369C98.352 2.23131 98.4665 2.74614 98.4665 3.37538C98.4665 4.00462 98.2376 4.91987 97.8943 6.23555L97.4366 8.00886C97.0933 9.32453 96.6928 10.297 96.2351 10.869C95.7774 11.4983 95.2053 11.9559 94.347 12.2419C93.546 12.5851 92.5162 12.6995 91.3719 12.6995H89.9415L87.7102 20.994H82.332L87.939 0.458008ZM92.3445 4.00462L90.9142 9.21013C91.0858 9.21013 91.2003 9.21013 91.3147 9.21013C91.8296 9.21013 92.1729 9.09572 92.4018 8.86691C92.6306 8.63809 92.8595 8.12326 93.0883 7.37962L93.546 5.66352C93.7177 4.97708 93.7177 4.51945 93.6033 4.29064C93.4888 4.06182 93.0311 4.00462 92.3445 4.00462Z" fill="white"></path>
<path d="M101.726 10.6974H96.863L97.1491 9.55335C97.4924 8.23767 97.8929 7.20801 98.4078 6.52157C98.9227 5.83513 99.6665 5.20589 100.754 4.63386C101.783 4.06182 103.042 3.83301 104.53 3.83301C106.246 3.83301 107.505 4.11903 108.249 4.74826C108.992 5.3775 109.278 6.12114 109.221 7.0364C109.164 7.95165 108.764 9.78216 108.02 12.5851L105.731 21.0512H100.696L101.097 19.5639C100.639 20.1932 100.067 20.6508 99.4949 20.9368C98.9227 21.2228 98.2934 21.3945 97.6068 21.3945C96.6914 21.3945 95.9476 21.1656 95.3182 20.6508C94.6889 20.136 94.6316 19.0491 95.0894 17.333L95.4326 15.9601C95.7759 14.7017 96.1764 13.8436 96.7486 13.386C97.2635 12.9283 98.4078 12.4135 100.124 11.7843C102.012 11.0978 103.042 10.6974 103.214 10.4686C103.385 10.2398 103.557 9.78216 103.786 9.03852C104.015 8.18047 104.129 7.55123 104.072 7.32242C104.015 7.0364 103.843 6.92199 103.557 6.92199C103.214 6.92199 102.985 7.0364 102.813 7.26521C102.642 7.49403 102.47 8.06606 102.241 9.03852L101.726 10.6974ZM102.699 12.9856C101.726 13.6148 101.097 14.0724 100.868 14.53C100.639 14.9305 100.41 15.5025 100.181 16.3033C99.9526 17.1614 99.8381 17.7334 99.8954 18.0195C99.9526 18.2483 100.124 18.4199 100.467 18.4199C100.811 18.4199 101.04 18.3055 101.154 18.1339C101.326 17.9622 101.497 17.3902 101.726 16.5322L102.699 12.9856Z" fill="white"></path>
<path d="M116.204 4.11902L115.689 5.66352C116.204 5.03428 116.834 4.57665 117.406 4.29064C118.035 4.00462 118.664 3.83301 119.408 3.83301C120.266 3.83301 120.953 4.06182 121.411 4.46225C121.868 4.86267 122.097 5.3775 122.04 6.06394C122.04 6.69318 121.811 7.78004 121.411 9.21013L118.207 21.0512H113.057L116.204 9.32453C116.49 8.18047 116.662 7.43682 116.662 7.20801C116.662 6.97919 116.49 6.80758 116.147 6.80758C115.804 6.80758 115.518 6.97919 115.346 7.26521C115.174 7.55123 114.945 8.35208 114.602 9.61055L111.513 21.0512H106.363L110.998 4.11902H116.204Z" fill="white"></path>
<path d="M123.753 4.51905L124.439 1.8877H129.589L128.902 4.51905H130.275L129.531 7.20761H128.158L125.755 16.2457C125.469 17.3326 125.355 17.9618 125.412 18.1335C125.469 18.2479 125.984 18.3051 126.785 18.3051L126.041 21.0508H123.982C122.78 21.0508 121.979 20.9936 121.521 20.8792C121.064 20.7648 120.663 20.536 120.377 20.1928C120.091 19.8496 119.977 19.4491 119.977 18.9915C119.977 18.5339 120.263 17.447 120.72 15.7881L123.009 7.20761" fill="white"></path>
<path d="M140.117 9.55278H135.54L135.769 8.63753C135.998 7.83668 136.055 7.37906 136.055 7.15024C135.998 6.92143 135.826 6.86422 135.483 6.86422C135.197 6.86422 134.968 6.97863 134.739 7.15024C134.567 7.32185 134.396 7.60787 134.281 8.00829C134.167 8.52312 134.053 8.92355 134.11 9.15236C134.11 9.38117 134.281 9.66719 134.567 9.95321C134.854 10.2392 135.483 10.6396 136.456 11.2117C137.771 11.9553 138.572 12.6418 138.859 13.271C139.145 13.9002 139.145 14.8727 138.801 16.074C138.458 17.4469 138 18.4765 137.428 19.2202C136.856 19.9066 136.169 20.4786 135.197 20.8219C134.281 21.2223 133.194 21.3939 132.05 21.3939C130.734 21.3939 129.704 21.1651 128.846 20.7646C128.045 20.3642 127.53 19.7922 127.358 19.1058C127.187 18.4193 127.301 17.3896 127.702 15.9596L127.931 15.1587H132.451L132.164 16.2456C131.936 17.1608 131.821 17.7329 131.878 18.0189C131.936 18.3049 132.107 18.4193 132.451 18.4193C132.794 18.4193 133.08 18.3049 133.309 18.1333C133.48 17.9617 133.652 17.5613 133.824 16.9892C134.053 16.1884 134.11 15.6735 133.938 15.4447C133.824 15.2159 132.965 14.6439 131.421 13.6142C130.162 12.7562 129.418 12.0125 129.304 11.3261C129.132 10.6396 129.189 9.8388 129.475 8.86634C129.819 7.49346 130.276 6.521 130.791 5.89177C131.306 5.26253 132.05 4.7477 133.023 4.40448C133.995 4.06126 135.025 3.88965 136.112 3.88965C137.257 3.88965 138.172 4.06126 138.859 4.29007C139.545 4.57609 140.06 4.97651 140.346 5.43414C140.632 5.89177 140.804 6.34939 140.747 6.74982C140.747 7.15024 140.575 7.77948 140.403 8.63753L140.117 9.55278Z" fill="white"></path>
<path d="M157.166 9.43897H151.788L152.76 5.83516C153.047 4.8055 153.161 4.11906 153.104 3.89024C153.047 3.60423 152.818 3.48982 152.417 3.48982C151.959 3.48982 151.673 3.66143 151.445 3.94745C151.216 4.23347 150.987 4.91991 150.701 6.00677L148.183 15.5597C147.897 16.5322 147.783 17.2186 147.84 17.5047C147.897 17.7907 148.126 17.9623 148.527 17.9623C148.927 17.9623 149.213 17.7907 149.442 17.5047C149.671 17.2186 149.9 16.475 150.186 15.3309L150.872 12.7568H156.251L156.022 13.5576C155.45 15.6741 154.877 17.2186 154.362 18.0767C153.848 18.9919 152.932 19.7356 151.731 20.422C150.529 21.1085 149.156 21.4517 147.668 21.4517C146.066 21.4517 144.865 21.1657 144.007 20.5936C143.148 20.0216 142.691 19.2208 142.634 18.2483C142.576 17.2186 142.805 15.7313 143.377 13.7292L144.979 7.72287C145.38 6.23558 145.723 5.14872 146.009 4.40508C146.295 3.66143 146.81 2.97499 147.497 2.23135C148.183 1.54491 149.042 1.03007 150.014 0.629651C151.044 0.229227 152.074 0.0576172 153.275 0.0576172C154.877 0.0576172 156.079 0.343634 156.937 0.972871C157.795 1.60211 158.253 2.34575 158.367 3.26101C158.425 4.17626 158.253 5.60635 157.681 7.49406L157.166 9.43897Z" fill="white"></path>
<path d="M169.355 10.0682L168.268 14.1868C167.868 15.7313 167.467 16.8182 167.124 17.5618C166.781 18.2483 166.266 18.9347 165.636 19.5639C164.95 20.1932 164.206 20.6508 163.348 20.9368C162.49 21.2228 161.517 21.3945 160.544 21.3945C159.4 21.3945 158.485 21.28 157.741 20.994C156.997 20.7652 156.482 20.3648 156.196 19.85C155.91 19.3351 155.738 18.7059 155.738 18.0195C155.738 17.2758 155.967 16.2461 156.31 14.7589L157.455 10.4114C157.855 8.86691 158.37 7.60843 158.942 6.75038C159.514 5.89233 160.315 5.14869 161.345 4.63386C162.375 4.11903 163.577 3.83301 164.95 3.83301C166.094 3.83301 167.067 4.00462 167.811 4.34784C168.554 4.69106 169.069 5.14869 169.355 5.72072C169.641 6.29275 169.813 6.86479 169.813 7.43682C169.813 8.00886 169.641 8.86691 169.355 10.0682ZM164.492 8.8097C164.721 7.95165 164.835 7.37962 164.778 7.15081C164.721 6.92199 164.607 6.80758 164.263 6.80758C163.977 6.80758 163.748 6.92199 163.577 7.15081C163.405 7.37962 163.233 7.89445 163.004 8.8097L160.945 16.475C160.716 17.2758 160.659 17.7906 160.659 18.0195C160.716 18.2483 160.83 18.3627 161.116 18.3627C161.403 18.3627 161.631 18.2483 161.803 18.0195C161.975 17.7906 162.146 17.333 162.318 16.5894L164.492 8.8097Z" fill="white"></path>
<path d="M171.644 16.8174L170.5 21.0504H166.609L167.754 16.8174H171.644Z" fill="white"></path>
<path d="M170.556 22.3096L169.297 27.0002H0L1.25871 22.3096H170.556Z" fill="white"></path>
</g>
<defs>
<clipPath id="clip0_2_12406">
<rect width="171.643" height="27" fill="white"></rect>
</clipPath>
</defs>
</svg>
