<svg xmlns="http://www.w3.org/2000/svg" xmlns:xlink="http://www.w3.org/1999/xlink" width="467" zoomAndPan="magnify" viewBox="0 0 350.25 149.999998" height="200" preserveAspectRatio="xMidYMid meet" version="1.0"><defs><g/><clipPath id="6085754dfe"><path d="M 4.332031 0.160156 L 345.175781 0.160156 L 345.175781 149.839844 L 4.332031 149.839844 Z M 4.332031 0.160156 " clip-rule="nonzero"/></clipPath><clipPath id="73555363bc"><path d="M 4.332031 0.101562 L 300.859375 0.101562 L 345.175781 74.996094 L 300.859375 149.890625 L 4.332031 149.890625 Z M 4.332031 0.101562 " clip-rule="nonzero"/></clipPath></defs><g clip-path="url(#6085754dfe)"><g clip-path="url(#73555363bc)"><path fill="#1a1919" d="M 4.332031 149.890625 L 4.332031 0.101562 L 345.175781 0.101562 L 345.175781 149.890625 Z M 4.332031 149.890625 " fill-opacity="1" fill-rule="nonzero"/></g></g><g fill="#ffffff" fill-opacity="1"><g transform="translate(42.737901, 108.864212)"><g><path d="M 8.402344 0 L 8.402344 -70.4375 L 56.265625 -13.894531 L 56.265625 -67.574219 L 61.988281 -67.574219 L 61.988281 1.984375 L 14.171875 -54.652344 L 14.171875 0 Z M 8.402344 0 "/></g></g></g><g fill="#ffffff" fill-opacity="1"><g transform="translate(113.170271, 108.864212)"><g><path d="M 41.3125 -3.691406 C 45.3125 -3.691406 49.097656 -4.429688 52.664062 -5.90625 C 56.234375 -7.386719 59.449219 -9.539062 62.3125 -12.371094 C 65.113281 -15.230469 67.257812 -18.484375 68.75 -22.132812 C 70.242188 -25.777344 70.992188 -29.617188 70.992188 -33.648438 C 70.992188 -37.710938 70.25 -41.550781 68.773438 -45.164062 C 67.296875 -48.78125 65.144531 -52.035156 62.3125 -54.925781 C 59.511719 -57.757812 56.320312 -59.914062 52.734375 -61.390625 C 49.148438 -62.867188 45.34375 -63.605469 41.3125 -63.605469 C 37.3125 -63.605469 33.542969 -62.867188 30.003906 -61.390625 C 26.464844 -59.914062 23.261719 -57.757812 20.402344 -54.925781 C 17.570312 -52.003906 15.417969 -48.75 13.941406 -45.164062 C 12.460938 -41.582031 11.722656 -37.742188 11.722656 -33.648438 C 11.722656 -29.585938 12.460938 -25.75 13.941406 -22.132812 C 15.417969 -18.515625 17.570312 -15.261719 20.402344 -12.371094 C 23.234375 -9.507812 26.402344 -7.347656 29.910156 -5.886719 C 33.417969 -4.421875 37.21875 -3.691406 41.3125 -3.691406 Z M 77.5 -33.648438 C 77.5 -28.878906 76.589844 -24.347656 74.773438 -20.054688 C 72.960938 -15.761719 70.34375 -11.9375 66.929688 -8.585938 C 63.453125 -5.199219 59.527344 -2.625 55.160156 -0.855469 C 50.789062 0.914062 46.171875 1.800781 41.3125 1.800781 C 36.449219 1.800781 31.839844 0.914062 27.488281 -0.855469 C 23.132812 -2.625 19.230469 -5.199219 15.785156 -8.585938 C 12.339844 -12 9.714844 -15.839844 7.917969 -20.101562 C 6.117188 -24.363281 5.214844 -28.878906 5.214844 -33.648438 C 5.214844 -38.480469 6.117188 -43.042969 7.917969 -47.335938 C 9.714844 -51.628906 12.339844 -55.480469 15.785156 -58.898438 C 19.171875 -62.25 23.03125 -64.789062 27.371094 -66.511719 C 31.710938 -68.234375 36.355469 -69.097656 41.3125 -69.097656 C 46.296875 -69.097656 50.964844 -68.230469 55.320312 -66.488281 C 59.675781 -64.75 63.542969 -62.21875 66.929688 -58.898438 C 70.375 -55.480469 73 -51.628906 74.796875 -47.335938 C 76.597656 -43.042969 77.5 -38.480469 77.5 -33.648438 Z M 77.5 -33.648438 "/></g></g></g><g fill="#ffffff" fill-opacity="1"><g transform="translate(195.879844, 108.864212)"><g><path d="M 14.539062 -37.527344 L 22.203125 -37.527344 C 27.832031 -37.527344 31.808594 -38.449219 34.132812 -40.296875 C 36.457031 -42.140625 37.617188 -45.21875 37.617188 -49.527344 C 37.617188 -54.171875 36.488281 -57.449219 34.226562 -59.359375 C 31.964844 -61.265625 27.957031 -62.21875 22.203125 -62.21875 L 14.539062 -62.21875 Z M 14.539062 -5.308594 L 22.386719 -5.308594 C 26.847656 -5.308594 29.925781 -5.492188 31.617188 -5.863281 C 33.308594 -6.230469 34.742188 -6.863281 35.910156 -7.753906 C 37.355469 -8.863281 38.511719 -10.394531 39.371094 -12.347656 C 40.234375 -14.300781 40.664062 -16.386719 40.664062 -18.601562 C 40.664062 -21.308594 40.1875 -23.6875 39.234375 -25.734375 C 38.28125 -27.777344 36.957031 -29.308594 35.265625 -30.324219 C 34.09375 -31.003906 32.71875 -31.488281 31.132812 -31.78125 C 29.546875 -32.070312 27.078125 -32.21875 23.726562 -32.21875 L 14.539062 -32.21875 Z M 8.402344 0 L 8.402344 -67.574219 L 20.125 -67.574219 C 25.261719 -67.574219 28.972656 -67.328125 31.25 -66.835938 C 33.527344 -66.34375 35.464844 -65.496094 37.066406 -64.296875 C 39.3125 -62.605469 41.019531 -60.535156 42.1875 -58.089844 C 43.355469 -55.644531 43.941406 -52.941406 43.941406 -49.988281 C 43.941406 -46.386719 43.003906 -43.328125 41.125 -40.804688 C 39.25 -38.28125 36.664062 -36.617188 33.371094 -35.816406 C 37.710938 -35.171875 41.109375 -33.433594 43.574219 -30.601562 C 46.035156 -27.769531 47.265625 -24.1875 47.265625 -19.847656 C 47.265625 -16.679688 46.789062 -13.863281 45.835938 -11.402344 C 44.878906 -8.9375 43.433594 -6.816406 41.496094 -5.03125 C 39.527344 -3.183594 37.15625 -1.886719 34.386719 -1.132812 C 31.617188 -0.378906 26.894531 0 20.21875 0 Z M 8.402344 0 "/></g></g></g><g fill="#ffffff" fill-opacity="1"><g transform="translate(248.173348, 108.864212)"><g><path d="M 8.402344 0 L 8.402344 -67.574219 L 14.539062 -67.574219 L 14.539062 -5.769531 L 37.710938 -5.769531 L 37.710938 0 Z M 8.402344 0 "/></g></g></g></svg>