<svg xmlns:xlink="http://www.w3.org/1999/xlink" width="104" height="27.5" viewBox="0 0 4735.53 937.05" xmlns="http://www.w3.org/2000/svg">
    <defs>
    </defs>
    <g id="Layer_1-2" data-name="Layer 1">
      <g>
        <g fill="#E84A38">
          <path d="M29.09,853.81c36.61,56.16,105.92,95.92,193.24,79.51,35.92-6.74,79.91-25.84,133.93-53.26,9.62-4.88,15.67-14.79,15.67-25.56v-84.94c0-17.15-18.32-28.11-33.49-20.01-53.16,28.34-109.33,56.47-139.1,62.05-35.82,6.72-55.19-9.88-64.81-23.65-7.3-12.11-9.36-18.93-9.76-31.64-.54-17.13,9.88-47.36,22.97-80.93,5.88-15.08,18.18-45.79,26.59-66.72,4.88-12.15-.58-25.98-12.43-31.54l-64.59-30.29c-15.14-7.1-33.11.13-39.11,15.74-6.65,17.29-46.81,126.34-48.95,134.16C2.9,715.87-.21,735.74.02,755.82c.46,32.6,6.37,61.22,29.08,97.99Z" fill="#E84A38"></path>
          <path d="M756.49,234.47c-36.61-56.16-105.92-95.92-193.24-79.51-35.92,6.74-79.91,25.84-133.93,53.26-9.62,4.88-15.67,14.79-15.67,25.56v84.94c0,17.15,18.32,28.11,33.49,20.01,53.16-28.34,109.33-56.47,139.1-62.05,35.82-6.72,55.19,9.88,64.81,23.65,7.3,12.11,9.36,18.93,9.76,31.64.54,17.13-9.88,47.36-22.97,80.93-5.88,15.08-18.18,45.79-26.59,66.72-4.88,12.15.58,25.98,12.43,31.54l64.59,30.29c15.14,7.1,33.11-.13,39.11-15.74,6.65-17.29,46.81-126.34,48.95-134.16,6.36-19.15,9.47-39.01,9.24-59.1-.46-32.6-6.37-61.22-29.08-97.99Z" fill="#E84A38"></path>
          <path d="M770.04,681.58c-26.27-58.93-82.65-103.35-167.54-131.98-38.18-12.89-203.75-68.44-209.36-70.23v-.05c-12.79-4.05-131.45-44.87-170.26-57.97-74.89-25.25-109.04-62.55-96.16-105.02.62-2.07,15.98-50.35,72.93-39.66,29.77,5.57,85.94,33.7,139.1,62.05,15.17,8.1,33.51-2.86,33.51-20.01v-84.94c0-10.77-6.07-20.67-15.7-25.56-54.02-27.42-98.01-46.52-133.93-53.26C112.84,134.33,31.5,202.5,7.85,280.46c-7.36,24.22-16.13,72.84,7.69,126.24,26.27,58.93,82.65,103.35,167.54,131.98,38.18,12.89,203.75,68.44,209.36,70.23v.05c12.79,4.05,131.45,44.87,170.26,57.97,74.89,25.25,109.04,62.55,96.16,105.02-.62,2.07-15.98,50.35-72.93,39.66-29.77-5.57-85.94-33.7-139.1-62.05-15.17-8.1-33.51,2.86-33.51,20.01v84.94c0,10.77,6.07,20.67,15.7,25.56,54.02,27.42,98.01,46.52,133.93,53.26,109.8,20.63,191.14-47.54,214.8-125.5,7.36-24.22,16.13-72.84-7.69-126.24Z" fill="#E84A38"></path>
        </g>
        <g fill="#7F000C">
          <path d="M2051.33,772.62c-38.07,0-88.67-11.48-88.67-110.72v-345.03h203.36c15.5,0,28.07-12.65,28.07-28.27v-106.07c0-15.61-12.57-28.27-28.07-28.27h-203.36V14.16c0-12.53-14.99-18.87-23.87-10.08l-270.73,267.9c-5.37,5.31-8.4,12.58-8.4,20.16v10.6c0,7.81,6.28,14.13,14.03,14.13h113.21v311.17c0,68.72,3.15,114.41,9.63,139.67,6.45,25.17,14.7,46.03,24.49,61.97,9.84,16.05,22.41,30.64,37.15,43.16,46.72,41.39,105.82,62.37,175.66,62.37s131.98-16.57,189.72-49.26h0c4.89-2.77,7.91-7.98,7.91-13.62v-136.17c0-12.13-13.12-19.63-23.46-13.42-55.07,33.09-107.78,49.87-156.67,49.87" fill="#7F000C"></path>
          <path d="M2874.65,704.65c-42.11,41.91-97.17,63.16-163.66,63.16s-122.57-21.02-164.95-62.47c-42.85-41.89-63.68-94.69-63.68-161.4s20.99-121.78,62.39-164.46c41.89-43.19,94.18-64.18,159.88-64.18s122.76,21.11,167.37,64.5c44.42,43.26,66.02,96.44,66.02,162.55s-20.74,119.84-63.36,162.31M2712.58,152.69c-116,0-213.93,37.71-291.05,112.06-77.32,74.55-116.52,169.02-116.52,280.78s38.8,204.39,115.3,278.4c76.34,73.85,172.52,111.28,285.91,111.28s215.51-36.84,292.86-109.52c77.68-72.97,117.06-165.87,117.06-276.15s-38.76-208.82-115.22-283.9c-76.33-74.96-173.34-112.96-288.34-112.96" fill="#7F000C"></path>
          <path d="M3765.91,704.65c-42.11,41.91-97.16,63.16-163.66,63.16s-122.58-21.02-164.95-62.47c-42.86-41.89-63.69-94.69-63.69-161.4s21-121.78,62.39-164.46c41.88-43.19,94.18-64.18,159.88-64.18s122.76,21.11,167.37,64.5c44.42,43.26,66.02,96.44,66.02,162.55s-20.74,119.84-63.36,162.31M3603.84,152.69c-116,0-213.92,37.71-291.05,112.06-77.32,74.55-116.53,169.02-116.53,280.78s38.8,204.39,115.31,278.4c76.34,73.85,172.52,111.28,285.91,111.28s215.51-36.84,292.86-109.52c77.68-72.97,117.06-165.87,117.06-276.15s-38.76-208.82-115.22-283.9c-76.32-74.96-173.33-112.96-288.34-112.96" fill="#7F000C"></path>
          <path d="M4552.11,170.75l-172.92,412.21-179.69-412.57c-4.48-10.28-14.56-16.91-25.7-16.91h-130.91c-20.31,0-33.9,21.06-25.65,39.76l319.73,724.42c4.51,10.21,14.56,16.79,25.65,16.79h32.57c11.18,0,21.29-6.68,25.75-17.01l312.25-724.42c8.05-18.67-5.54-39.53-25.75-39.53h-129.47c-11.28,0-21.47,6.8-25.86,17.27" fill="#7F000C"></path>
          <path d="M1415.51,476.1l-51.21-29.34c-37.39-20.85-63.6-38.63-77.92-52.86-12.48-12.38-18.54-24.58-18.54-37.3,0-14.48,6.01-25.42,18.93-34.42,14.31-10.01,33.96-15.08,58.41-15.08,50.83,0,118.18,25.33,200.16,75.27,10.21,6.22,23.24-1.18,23.24-13.2v-134.01c0-10.91-6.29-20.8-16.13-25.36-37.76-17.52-134.89-58.52-216.7-58.52-71.34,0-130.73,18.99-176.52,56.43-46.75,38.25-70.45,88.31-70.45,148.81,0,46.57,15.49,90.09,46.06,129.33,30.07,38.63,90.78,83.27,185.49,136.36,44.67,25.59,73.83,45.1,86.64,58.01,10.99,11.07,16.34,24.7,16.34,41.69,0,15.28-8.35,28.44-25.52,40.25-19.03,13.09-41.38,19.45-68.32,19.45s-59.95-9.83-100.52-25.3c-35.92-13.7-88.18-46.64-119.13-67.14-11.05-7.32-25.74.69-25.74,14.01v144.7c0,11.07,6.48,21.09,16.54,25.54,30.64,13.58,95.44,41.76,121.16,48.84,34.69,9.54,74.63,14.39,118.69,14.39,76.05,0,139.42-20.46,188.36-60.81,49.83-41.1,75.1-94.47,75.1-158.61,0-88.85-63.4-169.99-188.41-241.13" fill="#7F000C"></path>
        </g>
      </g>
    </g>
  </svg>