<svg width="108" height="32" viewBox="0 0 108 32" fill="none" xmlns="http://www.w3.org/2000/svg">
            <path d="M0 16.8141V17.2195H5.06373V16.7876C4.39619 16.6096 3.25279 15.94 3.25279 14.4289V2.71642L15.2483 17.2722H15.882V2.44151C15.882 1.13929 17.1251 0.530476 17.7216 0.450899V0.0100567H12.7721V0.450898C13.3686 0.530476 14.5788 1.13929 14.5788 2.44151V11.5292L5.21306 0H0.449214V0.440842C0.940857 0.565139 1.92414 1.13929 1.92414 2.44151V14.4289C1.92414 16.0295 0.641381 16.686 0 16.8141Z" fill="#194141"></path>
            <path d="M30.9554 15.5243V5.1702H26.535V5.52196C27.0522 5.60272 28.0865 6.01297 28.0865 7.00793V12.6126C27.8816 13.5387 27.0066 15.4174 25.1462 15.5243C23.2857 15.6311 22.9606 14.0369 23.0306 13.2264V5.1702H18.492V5.52196C19.0412 5.67809 20.1398 6.19387 20.1398 7.00793V12.4996C20.1398 15.6653 21.2864 17.2695 24.0803 17.2695C26.3154 17.2695 27.6824 15.1663 28.0865 14.1147V17.2695H32.17V16.818C31.108 16.818 30.9178 15.9555 30.9554 15.5243Z" fill="#194141"></path>
            <path d="M34.227 5.1702H38.7303V8.56771C39.1751 7.37622 40.5221 4.99799 42.352 5.01706C44.6393 5.04088 44.6632 6.61366 44.6632 7.0426C44.6632 7.47154 44.3377 9.04665 42.9784 9.11773C43.0317 8.30026 42.7741 7.22333 41.3526 7.25177C40.4785 7.32012 38.7303 8.15486 38.7303 10.947V15.2803C38.7303 16.3156 40.3035 16.7443 41.09 16.8293V17.1822H34.5812V16.8293C35.0517 16.6398 35.9927 16.0646 35.9927 15.2803V7.0426C35.9927 6.19604 34.8156 5.64196 34.227 5.47074V5.1702Z" fill="#194141"></path>
            <path d="M69.7238 9.12466V4.93323L68.2648 5.82422C67.7246 5.06785 65.3509 4.78691 63.7489 5.15429C61.9039 5.57738 61.0695 7.33695 60.9399 8.63358C60.8102 9.93021 61.8042 11.8752 64.1162 12.1561C66.4282 12.437 68.2 13.1548 68.1568 14.5549C68.0703 17.3587 63.2973 15.9713 61.5457 13.7801C61.2504 13.4106 60.9979 13.0562 60.8102 12.7612L60.9399 17.5803L62.1715 16.3269C62.4668 16.6439 63.6354 17.3037 65.9474 17.4074C68.8374 17.5371 70.3733 15.6016 70.4017 13.1548C70.4302 10.708 67.1952 9.9056 65.3508 9.51508C63.5065 9.12455 63.2533 8.47982 63.2072 7.58166C63.1612 6.6835 64.3125 5.94654 65.9474 6.01563C67.2553 6.0709 68.8104 8.11135 69.4245 9.12466H69.7238Z" fill="#194141"></path>
            <path fill-rule="evenodd" clip-rule="evenodd" d="M51.8048 5.01706C47.6302 5.01706 46.004 8.91508 46.004 11.0235C46.004 15.956 50.1301 17.3671 52.1931 17.4561C55.7124 17.6018 58.3823 14.9073 58.3823 11.0235C58.3823 8.81436 57.0231 5.01706 51.8048 5.01706ZM52.1931 5.99868C51.2385 6.03913 49.3146 6.77545 49.2563 9.39708L49.2549 9.46148C49.1824 12.7201 49.105 16.1952 51.9262 16.3881C54.7659 16.5823 55.3727 13.6451 55.3727 12.043L55.3727 11.9728C55.3734 10.3152 55.3752 5.99868 52.1931 5.99868Z" fill="#194141"></path>
            <path d="M84.9702 5.15429V5.66251C84.7081 5.6028 83.8747 6.21163 82.6376 9.12466C81.4006 12.0377 78.9947 17.6938 77.9463 20.1577C77.4484 21.0926 76.5048 22.7003 74.7489 22.7003C73.9952 22.6704 72.4973 22.2334 72.5356 20.7237C72.574 19.214 73.8287 18.7663 74.4512 18.7312C74.2123 19.3443 73.9604 20.4452 74.7489 20.6471C75.6808 20.8857 76.2688 20.9541 77.2598 18.9499C77.534 18.3951 77.7007 18.0323 77.8046 17.7872C77.9709 17.395 77.9214 16.9374 77.7409 16.5516L73.3087 7.07723C72.9091 6.5445 72.0401 5.47903 71.7612 5.47903V5.15429H77.1601V5.47903C76.7437 5.58809 76.0239 6.08865 76.4757 7.21845C76.9276 8.34826 78.614 12.2353 79.4007 14.0376L82.2485 6.915C82.3096 6.79021 82.3432 6.47033 81.9887 6.18916C81.6343 5.908 81.1554 5.59859 80.9603 5.47903V5.15429H84.9702Z" fill="#194141"></path>
            <path d="M90.6294 5.15429H86.1657V5.66251C86.691 5.71816 87.7415 6.24951 87.7415 7.92978V15.4866C87.7415 16.185 86.8684 16.6493 86.4319 16.7942V17.2853H91.9123V16.7942C91.4847 16.6526 90.6294 16.1928 90.6294 15.4866V10.3204C90.6294 9.16074 91.5017 6.78543 93.331 6.81995C94.7945 6.84757 95.2925 8.14351 95.3586 8.78803V15.4866C95.3586 16.185 94.4856 16.6493 94.0491 16.7942V17.2853H99.5295V16.7942C99.1019 16.6526 98.2466 16.1928 98.2466 15.4866V10.0303C98.4407 8.99252 99.248 6.9045 100.924 6.85447C102.601 6.80444 103.077 8.12267 103.105 8.78803V15.4866C103.105 16.185 102.232 16.6493 101.796 16.7942V17.2853H107.276V16.7942C106.849 16.6526 105.993 16.1928 105.993 15.4866V9.06373C105.993 7.2659 104.88 4.93863 102.408 4.93863C99.9372 4.93863 98.6042 6.9983 98.2466 8.02814C98.0289 6.96954 96.9792 4.86959 94.5218 4.93863C92.0643 5.00767 90.9029 7.02707 90.6294 8.02814V5.15429Z" fill="#194141"></path>
            <path fill-rule="evenodd" clip-rule="evenodd" d="M0.5 30.0961V24.0104H3.21209C3.58877 24.0104 3.92198 24.0771 4.21173 24.2104C4.50149 24.3437 4.7275 24.5321 4.88976 24.7755C5.05202 25.0131 5.13315 25.2913 5.13315 25.6101C5.13315 25.9231 5.04332 26.1984 4.86368 26.436C4.68403 26.6678 4.44064 26.8417 4.1335 26.9576C4.50438 27.0678 4.79703 27.2503 5.01145 27.5053C5.22587 27.7546 5.33308 28.053 5.33308 28.4008C5.33308 28.7369 5.24905 29.0325 5.08099 29.2876C4.91294 29.5426 4.67823 29.7425 4.37689 29.8874C4.07555 30.0265 3.72495 30.0961 3.32509 30.0961H0.5ZM1.54311 26.5751H3.09908C3.40042 26.5751 3.63802 26.4969 3.81187 26.3404C3.99152 26.1839 4.08134 25.9752 4.08134 25.7144C4.08134 25.4536 3.99152 25.2479 3.81187 25.0972C3.63802 24.9407 3.40042 24.8624 3.09908 24.8624H1.54311V26.5751ZM1.54311 29.2441H3.1947C3.52502 29.2441 3.78869 29.16 3.98572 28.992C4.18276 28.8181 4.28127 28.5892 4.28127 28.3052C4.28127 28.027 4.18276 27.8038 3.98572 27.6357C3.79449 27.4619 3.53081 27.3749 3.1947 27.3749H1.54311V29.2441Z" fill="#194141"></path>
            <path d="M6.61645 32C6.45999 32 6.29772 31.9797 6.12967 31.9391V31.0872C6.18762 31.0987 6.24847 31.1074 6.31221 31.1132C6.38175 31.119 6.4484 31.1219 6.51214 31.1219C6.686 31.1219 6.82798 31.0814 6.93808 31.0002C7.04819 30.9191 7.14091 30.7945 7.21624 30.6264L7.41617 30.1395L5.77327 25.7405H6.86854L7.9725 28.9659L9.18077 25.7405H10.2586L8.17243 30.8524C8.06232 31.1306 7.93773 31.3538 7.79865 31.5218C7.65957 31.6899 7.4944 31.8116 7.30317 31.887C7.11773 31.9623 6.88882 32 6.61645 32Z" fill="#194141"></path>
            <path fill-rule="evenodd" clip-rule="evenodd" d="M13.0465 24.0104V30.0961H14.0896V27.7748H15.7673C16.1788 27.7748 16.5351 27.6966 16.8365 27.5401C17.1436 27.3778 17.3812 27.1547 17.5493 26.8707C17.7173 26.5867 17.8014 26.265 17.8014 25.9057C17.8014 25.529 17.7173 25.1986 17.5493 24.9146C17.3812 24.6306 17.1436 24.4104 16.8365 24.2539C16.5351 24.0916 16.1788 24.0104 15.7673 24.0104H13.0465ZM15.6021 26.9229H14.0896V24.8972H15.6108C15.9759 24.8972 16.257 24.9899 16.454 25.1754C16.651 25.3551 16.7496 25.5956 16.7496 25.897C16.7496 26.2042 16.651 26.4534 16.454 26.6447C16.257 26.8301 15.973 26.9229 15.6021 26.9229Z" fill="#194141"></path>
            <path fill-rule="evenodd" clip-rule="evenodd" d="M19.9676 30.1743C19.6662 30.1743 19.3968 30.1193 19.1592 30.0091C18.9274 29.8932 18.7448 29.7367 18.6115 29.5397C18.4841 29.3368 18.4203 29.105 18.4203 28.8442C18.4203 28.5834 18.4869 28.3573 18.6202 28.1661C18.7593 27.9748 18.9535 27.827 19.2026 27.7227C19.4518 27.6183 19.7474 27.5662 20.0893 27.5662C20.2921 27.5662 20.492 27.5894 20.6891 27.6357C20.8861 27.6763 21.0773 27.7459 21.2628 27.8444V27.3575C21.2628 27.0678 21.1788 26.8504 21.0107 26.7055C20.8484 26.5606 20.5992 26.4882 20.2631 26.4882C20.0835 26.4882 19.8894 26.5171 19.6807 26.5751C19.4779 26.6273 19.249 26.7113 18.994 26.8272L18.6463 26.1143C19.2838 25.8187 19.8865 25.671 20.4544 25.671C21.0223 25.671 21.4598 25.8101 21.767 26.0883C22.0799 26.3607 22.2363 26.749 22.2363 27.2532V30.0961H21.2628V29.644C21.0773 29.8237 20.8774 29.957 20.663 30.0439C20.4486 30.1308 20.2168 30.1743 19.9676 30.1743ZM19.3417 28.8268C19.3417 29.0296 19.4229 29.189 19.5851 29.3049C19.7474 29.4209 19.9647 29.4788 20.2371 29.4788C20.4341 29.4788 20.6166 29.4498 20.7847 29.3919C20.9585 29.3281 21.1179 29.2354 21.2628 29.1137V28.4095C21.1121 28.3399 20.9556 28.2878 20.7934 28.253C20.6311 28.2182 20.4544 28.2008 20.2631 28.2008C19.9792 28.2008 19.7532 28.2559 19.5851 28.366C19.4229 28.4761 19.3417 28.6297 19.3417 28.8268Z" fill="#194141"></path>
            <path d="M23.4255 25.7405V30.0961H24.4078V27.2271C24.5179 27.0011 24.6657 26.8243 24.8511 26.6968C25.0424 26.5693 25.2568 26.5056 25.4944 26.5056C25.5871 26.5056 25.6798 26.5142 25.7725 26.5316C25.871 26.549 25.958 26.5751 26.0333 26.6099V25.7492C25.9638 25.7144 25.8971 25.6941 25.8334 25.6883C25.7696 25.6767 25.6943 25.6681 25.6074 25.6623C25.3408 25.6623 25.1061 25.7492 24.9033 25.9231C24.7004 26.0969 24.5353 26.3491 24.4078 26.6794V25.7405H23.4255Z" fill="#194141"></path>
            <path fill-rule="evenodd" clip-rule="evenodd" d="M28.0235 30.1743C27.7222 30.1743 27.4527 30.1193 27.2151 30.0091C26.9833 29.8932 26.8007 29.7367 26.6675 29.5397C26.54 29.3368 26.4762 29.105 26.4762 28.8442C26.4762 28.5834 26.5429 28.3573 26.6762 28.1661C26.8152 27.9748 27.0094 27.827 27.2586 27.7227C27.5077 27.6183 27.8033 27.5662 28.1452 27.5662C28.348 27.5662 28.548 27.5894 28.745 27.6357C28.942 27.6763 29.1333 27.7459 29.3187 27.8444V27.3575C29.3187 27.0678 29.2347 26.8504 29.0666 26.7055C28.9044 26.5606 28.6552 26.4882 28.319 26.4882C28.1394 26.4882 27.9453 26.5171 27.7367 26.5751C27.5338 26.6273 27.3049 26.7113 27.0499 26.8272L26.7022 26.1143C27.3397 25.8187 27.9424 25.671 28.5103 25.671C29.0782 25.671 29.5157 25.8101 29.8229 26.0883C30.1358 26.3607 30.2923 26.749 30.2923 27.2532V30.0961H29.3187V29.644C29.1333 29.8237 28.9333 29.957 28.7189 30.0439C28.5045 30.1308 28.2727 30.1743 28.0235 30.1743ZM27.3976 28.8268C27.3976 29.0296 27.4788 29.189 27.641 29.3049C27.8033 29.4209 28.0206 29.4788 28.293 29.4788C28.49 29.4788 28.6725 29.4498 28.8406 29.3919C29.0145 29.3281 29.1738 29.2354 29.3187 29.1137V28.4095C29.168 28.3399 29.0116 28.2878 28.8493 28.253C28.687 28.2182 28.5103 28.2008 28.319 28.2008C28.0351 28.2008 27.8091 28.2559 27.641 28.366C27.4788 28.4761 27.3976 28.6297 27.3976 28.8268Z" fill="#194141"></path>
            <path d="M31.9161 30.0352C32.2406 30.1337 32.5883 30.183 32.9592 30.183C33.3011 30.183 33.6053 30.1222 33.8719 30.0004C34.1385 29.8729 34.35 29.702 34.5065 29.4875C34.6629 29.2731 34.7412 29.0325 34.7412 28.7659C34.7412 28.4356 34.634 28.1719 34.4195 27.9748C34.2109 27.7719 33.8893 27.6328 33.4547 27.5575L32.681 27.4097C32.455 27.3749 32.2957 27.3228 32.2029 27.2532C32.116 27.1779 32.0726 27.0706 32.0726 26.9315C32.0726 26.7751 32.1392 26.6533 32.2725 26.5664C32.4116 26.4737 32.5941 26.4273 32.8201 26.4273C33.0403 26.4273 33.2576 26.4621 33.4721 26.5316C33.6923 26.5954 33.9125 26.6997 34.1327 26.8446L34.5934 26.1926C34.321 26.0187 34.0429 25.8883 33.7589 25.8014C33.475 25.7144 33.1823 25.671 32.881 25.671C32.5448 25.671 32.2493 25.7289 31.9943 25.8448C31.7451 25.9549 31.5481 26.1114 31.4032 26.3143C31.2641 26.5113 31.1946 26.7461 31.1946 27.0185C31.1946 27.3431 31.2989 27.6039 31.5075 27.8009C31.7162 27.998 32.032 28.1371 32.455 28.2182L33.22 28.3486C33.4344 28.3892 33.588 28.4501 33.6807 28.5312C33.7792 28.6065 33.8284 28.7109 33.8284 28.8442C33.8284 29.018 33.7473 29.16 33.5851 29.2702C33.4228 29.3803 33.2113 29.4353 32.9505 29.4353C32.7303 29.4353 32.513 29.3977 32.2986 29.3223C32.0899 29.247 31.8408 29.1195 31.551 28.9398L31.0903 29.5918C31.3221 29.7831 31.5974 29.9309 31.9161 30.0352Z" fill="#194141"></path>
            <path d="M35.869 32C35.7126 32 35.5503 31.9797 35.3822 31.9391V31.0872C35.4402 31.0987 35.5011 31.1074 35.5648 31.1132C35.6343 31.119 35.701 31.1219 35.7647 31.1219C35.9386 31.1219 36.0806 31.0814 36.1907 31.0002C36.3008 30.9191 36.3935 30.7945 36.4688 30.6264L36.6687 30.1395L35.0259 25.7405H36.1211L37.2251 28.9659L38.4333 25.7405H39.5112L37.425 30.8524C37.3149 31.1306 37.1903 31.3538 37.0512 31.5218C36.9121 31.6899 36.747 31.8116 36.5557 31.887C36.3703 31.9623 36.1414 32 35.869 32Z" fill="#194141"></path>
            <path d="M40.225 25.7405V30.0961H41.2072V26.9663C41.4275 26.6302 41.7143 26.4621 42.0678 26.4621C42.3402 26.4621 42.5546 26.5519 42.7111 26.7316C42.8675 26.9113 42.9457 27.1547 42.9457 27.4619V30.0961H43.9367V27.2445C43.9367 27.1982 43.9338 27.1547 43.928 27.1141C43.928 27.0678 43.9251 27.0243 43.9193 26.9837C44.0294 26.8098 44.1569 26.6794 44.3018 26.5925C44.4525 26.5056 44.6147 26.4621 44.7886 26.4621C45.0609 26.4621 45.2754 26.5519 45.4318 26.7316C45.5883 26.9113 45.6665 27.1547 45.6665 27.4619V30.0961H46.6488V27.2445C46.6488 26.9373 46.5879 26.6649 46.4662 26.4273C46.3503 26.1897 46.1852 26.0042 45.9708 25.8709C45.7563 25.7376 45.5072 25.671 45.2232 25.671C44.9161 25.671 44.6408 25.7434 44.3974 25.8883C44.1598 26.0274 43.9541 26.2331 43.7802 26.5056C43.6701 26.2505 43.5021 26.0477 43.2761 25.897C43.0559 25.7463 42.798 25.671 42.5024 25.671C42.2359 25.671 41.9925 25.7347 41.7722 25.8622C41.5578 25.9897 41.3695 26.1781 41.2072 26.4273V25.7405H40.225Z" fill="#194141"></path>
            </svg>