<svg xmlns="http://www.w3.org/2000/svg" fill="none" viewBox="0 0 256 63" height="63" width="256">
<path fill="black" d="M79.744 41.0838C78.1932 42.2476 76.3553 42.9721 74.4249 43.1804C71.6453 43.5095 68.847 43.6562 66.048 43.6196C63.056 43.6548 60.0656 43.4654 57.1022 43.0529C54.8094 42.7499 52.608 41.9626 50.6453 40.7438L50.4178 33.6604C51.8446 34.702 53.4098 35.5412 55.0685 36.1538C56.6506 36.7076 58.2927 37.0738 59.9609 37.2446C61.6676 37.4146 63.7582 37.5138 66.2471 37.5138C67.9682 37.5637 69.6905 37.4689 71.3956 37.2304C71.6951 37.1853 71.9684 37.0347 72.166 36.806C72.3635 36.5772 72.4721 36.2855 72.4721 35.9838C72.4721 35.682 72.3635 35.3903 72.166 35.1615C71.9684 34.9328 71.6951 34.7822 71.3956 34.7371C70.5683 34.5769 69.7326 34.4634 68.8925 34.3971L61.6391 33.7596C59.489 33.6086 57.354 33.2913 55.2533 32.8104C53.9375 32.4811 52.7465 31.7772 51.8258 30.7846C50.9244 29.6166 50.4842 28.16 50.5885 26.6904C50.5303 25.823 50.6689 24.9537 50.9938 24.1469C51.3188 23.3401 51.8219 22.6164 52.4658 22.0296C53.9255 20.8805 55.6701 20.1462 57.5147 19.9046C60.289 19.5126 63.0898 19.3374 65.8916 19.3804C68.4592 19.3649 71.025 19.5211 73.5716 19.8479C75.6249 20.0743 77.6251 20.6443 79.488 21.5338L79.7298 28.1213C78.3742 27.3902 76.9438 26.806 75.4631 26.3788C74.0692 25.9889 72.6401 25.7374 71.1965 25.6279C69.7031 25.5004 67.8542 25.4438 65.6356 25.4438C63.9115 25.3719 62.1848 25.4907 60.4871 25.7979C60.2358 25.8294 60.0051 25.9525 59.8397 26.1435C59.6742 26.3345 59.5856 26.5799 59.5911 26.8321C59.5794 26.9606 59.5933 27.0901 59.6321 27.2131C59.6709 27.3362 59.7337 27.4504 59.817 27.5492C59.9003 27.6479 60.0024 27.7293 60.1174 27.7886C60.2324 27.8479 60.3581 27.8839 60.4871 27.8946C61.2991 28.0575 62.1211 28.1664 62.9476 28.2204L70.1867 28.8154C72.4052 28.9491 74.6082 29.2714 76.7716 29.7788C78.185 30.088 79.47 30.8195 80.4551 31.8754C81.3801 33.0931 81.8344 34.6016 81.7351 36.1254C81.8129 37.0492 81.6735 37.9783 81.3278 38.839C80.9822 39.6997 80.4399 40.4683 79.744 41.0838Z"></path>
<path fill="black" d="M113.65 41.1404C111.818 42.1151 109.839 42.785 107.79 43.1237C105.38 43.4802 102.945 43.646 100.508 43.6196C97.2563 43.6979 94.0082 43.3406 90.8516 42.5571C88.5637 41.9993 86.5302 40.6922 85.0774 38.8454C83.6566 36.6905 82.9685 34.1378 83.1147 31.5637C82.9582 28.9447 83.6567 26.3455 85.1058 24.1546C86.5345 22.3268 88.5378 21.0297 90.7947 20.4712C93.8615 19.6965 97.0179 19.3297 100.181 19.3804C102.702 19.3508 105.222 19.507 107.719 19.8479C109.719 20.1422 111.647 20.8001 113.408 21.7887L113.678 28.8721C112.12 27.802 110.381 27.0198 108.544 26.5629C106.438 26.1396 104.292 25.9496 102.144 25.9962C100.285 25.9595 98.4262 26.0637 96.5831 26.3079C95.4457 26.4475 94.3911 26.9728 93.5965 27.7954C92.8007 28.8574 92.4214 30.1721 92.5298 31.4929C92.4166 32.8142 92.8076 34.1294 93.6249 35.1762C94.4356 35.9729 95.4935 36.4723 96.6258 36.5929C98.456 36.8192 100.3 36.9139 102.144 36.8762C103.697 36.8957 105.249 36.8295 106.795 36.6779C107.987 36.5317 109.157 36.2416 110.279 35.8137C111.545 35.3408 112.76 34.7428 113.906 34.0287L113.65 41.1404Z"></path>
<path fill="black" d="M141.426 19.9046L152.434 43.0954H142.734L140.331 37.6554H126.308L123.947 43.0954H114.247L125.212 19.9046H141.426ZM137.714 31.6346L133.348 21.7179L128.996 31.6346H137.714Z"></path>
<path fill="black" d="M181.689 33.2212C179.854 34.519 177.68 35.2573 175.431 35.3462L183.737 43.0954H173.397L162.66 32.0596V43.0954H154.012V20.2304C155.493 19.9124 156.995 19.7087 158.507 19.6212C160.228 19.4937 163.086 19.4371 167.04 19.4371C169.837 19.3991 172.634 19.5221 175.417 19.8054C177.188 19.9524 178.908 20.4689 180.466 21.3212C181.557 21.9914 182.439 22.9505 183.014 24.0912C183.589 25.232 183.834 26.5096 183.723 27.7812C183.812 28.7816 183.675 29.7892 183.324 30.7304C182.972 31.6716 182.413 32.5226 181.689 33.2212ZM173.724 25.6562C173.007 25.2529 172.184 25.0751 171.364 25.1462H162.66V30.2746H171.364C172.19 30.3493 173.018 30.1554 173.724 29.7221C173.99 29.4665 174.192 29.1531 174.316 28.8065C174.439 28.46 174.48 28.0896 174.436 27.7246C174.486 27.3485 174.448 26.966 174.324 26.6071C174.201 26.2481 173.996 25.9227 173.724 25.6562Z"></path>
<path fill="black" d="M214.286 32.8388C212.995 34.1353 211.329 34.9972 209.522 35.3038C206.902 35.8017 204.238 36.0249 201.572 35.9696H194.958V43.0529H186.311V20.2304C187.787 19.9133 189.284 19.7096 190.791 19.6213C192.526 19.4985 195.371 19.4371 199.324 19.4371C202.122 19.3989 204.918 19.5219 207.701 19.8054C209.477 19.9542 211.201 20.4705 212.764 21.3213C213.796 21.9048 214.628 22.7832 215.154 23.8429C215.72 25.0773 215.992 26.425 215.95 27.7813C216.062 29.6166 215.467 31.4253 214.286 32.8388ZM205.98 25.6421C205.276 25.2479 204.467 25.075 203.662 25.1463H194.958V30.2746H203.662C204.476 30.3526 205.293 30.1689 205.995 29.7504C206.249 29.4824 206.44 29.162 206.556 28.8118C206.671 28.4617 206.708 28.0905 206.663 27.7246C206.718 27.3486 206.685 26.9649 206.567 26.6037C206.448 26.2424 206.248 25.9133 205.98 25.6421Z"></path>
<path fill="black" d="M239.275 19.9046L250.268 43.0954H240.569L238.137 37.6554H224.185L221.824 43.0954H212.11L223.076 19.9046H239.275ZM235.548 31.6346L231.196 21.7179L226.83 31.6346H235.548Z"></path>
<path fill="black" d="M256 23.2196C256 26.0529 254.706 27.0729 251.25 27.0729C247.794 27.0729 246.485 26.0246 246.485 23.2196C246.485 20.4146 247.808 19.3804 251.25 19.3804C254.692 19.3804 256 20.4288 256 23.2196ZM254.891 23.2196C254.891 21.0663 253.995 20.3863 251.25 20.3863C248.505 20.3863 247.595 21.1088 247.595 23.2196C247.595 25.3304 248.505 26.0529 251.25 26.0529C253.995 26.0529 254.891 25.3871 254.891 23.2196ZM252.274 23.7863L253.625 25.0329H252.203L250.254 23.1488V25.0329H249.102V21.3921C249.697 21.319 250.295 21.2858 250.894 21.2929C251.533 21.2679 252.173 21.3202 252.8 21.4488C253.049 21.5003 253.269 21.645 253.415 21.8532C253.56 22.0613 253.62 22.3171 253.582 22.5679C253.596 23.3754 253.227 23.7296 252.274 23.7863ZM250.268 22.9646H251.918C252.302 22.9646 252.402 22.8654 252.402 22.5679C252.402 22.2704 252.288 22.1854 251.904 22.1571C251.52 22.1288 251.221 22.1571 250.908 22.1571H250.268V22.9646Z"></path>
<path fill="black" d="M16.6827 19.3804C4.89245 19.3804 0 22.7238 0 31.5638C0 40.4038 4.89245 43.6196 16.6827 43.6196C28.4729 43.6196 33.3369 40.2479 33.3369 31.5638C33.3369 22.8796 28.4871 19.3804 16.6827 19.3804ZM4.02489 31.5638C4.02489 25.2738 7.31022 23.0638 16.6827 23.0638C22.8267 23.0638 26.3538 24.0129 28.0604 26.4354H18.688C18.3127 26.4351 17.941 26.5088 17.5944 26.6523C17.2477 26.7957 16.9331 27.0061 16.6684 27.2713L15.5733 28.3621L9.55733 34.3546C9.42394 34.4902 9.26455 34.5976 9.08865 34.6706C8.91274 34.7437 8.7239 34.7807 8.53333 34.7796H4.42311C4.1402 33.7314 4.00616 32.649 4.02489 31.5638ZM16.6827 40.0638C10.5671 40.0638 7.05422 39.1146 5.30489 36.7204H14.6489C15.0365 36.7172 15.4194 36.6352 15.774 36.4793C16.1286 36.3234 16.4475 36.0969 16.7111 35.8138L17.792 34.7229L23.8222 28.7304C23.9539 28.5966 24.111 28.4901 24.2844 28.4171C24.4577 28.3442 24.6438 28.3062 24.832 28.3054H28.9564C29.2332 29.369 29.3625 30.4653 29.3404 31.5638C29.3404 37.7404 26.0551 39.9646 16.6827 39.9646V40.0638Z"></path>
</svg>
