
<svg width="500" height="500" viewBox="0 0 500 500" fill="none" xmlns="http://www.w3.org/2000/svg">
<rect width="500" height="500" rx="70" fill="url(#paint0_linear_4542_4)"/>
<path d="M142 404C133.333 404 125.333 400.667 118 394C110.667 386.667 107 378.667 107 370C107 362 110 355 116 349L202 259C205.333 254.333 207 250.667 207 248C207 244 205.333 240.333 202 237L121 153C116.333 147.667 114 141.333 114 134C114 124.667 118 116.667 126 110C134 102.667 142.333 99 151 99C155 99 159 100 163 102C167.667 103.333 171.667 106.333 175 111L241 190C245.667 194.667 249.333 197 252 197C256 197 259.667 194.667 263 190L329 111C332.333 106.333 336 103.333 340 102C344.667 100 349 99 353 99C362.333 99 370.667 102.667 378 110C385.333 117.333 389 125.667 389 135C389 142.333 386.667 148.667 382 154L303 237C300.333 239.667 299 243.333 299 248C299 252 300.333 255.667 303 259L388 349C394 355 397 362 397 370C397 378.667 393.333 386.667 386 394C378.667 400.667 370.667 404 362 404C353.333 404 345.667 400.667 339 394L263 305C260.333 300.333 256.667 298 252 298C248.667 298 245 300.333 241 305L165 394C158.333 400.667 150.667 404 142 404Z" fill="#FAFAFA"/>
<defs>
<linearGradient id="paint0_linear_4542_4" x1="26.0721" y1="32.9588" x2="293.365" y2="508.116" gradientUnits="userSpaceOnUse">
<stop stop-color="#FFEC04"/>
<stop offset="0.516342" stop-color="#F97D7D"/>
<stop offset="1" stop-color="#E738B4"/>
</linearGradient>
</defs>
</svg>
